<svg width="33" height="16" viewBox="0 0 33 16" fill="none" xmlns="http://www.w3.org/2000/svg">
<path d="M32.8333 0.553665C32.8333 0.743848 32.8333 0.89637 32.8333 1.04983C32.8333 4.28011 32.8239 7.51133 32.8436 10.7416C32.8464 11.2076 32.6919 11.3169 32.2545 11.3169C24.5481 11.3056 16.8408 11.3056 9.13436 11.3169C8.69697 11.3169 8.54056 11.2067 8.54337 10.7416C8.5621 7.52734 8.56116 4.31212 8.54337 1.09691C8.54149 0.656289 8.64733 0.5 9.11095 0.5C16.8333 0.512239 24.5556 0.508473 32.2779 0.510356C32.4455 0.510356 32.6132 0.535777 32.8333 0.553665Z" fill="#9C9C9C"/>
<path d="M1.57877 13.665C1.08143 13.6028 0.576602 13.5397 0.0146388 13.4691C0.0146388 13.1904 0.0146388 12.9287 0.0146388 12.666C0.0146388 11.2858 0.00714593 9.90556 0.0230682 8.52532C0.025878 8.30407 0.0642789 7.99432 0.207579 7.87945C0.655277 7.52169 0.572856 7.05847 0.575665 6.59996C0.577539 6.28832 0.575665 5.97669 0.575665 5.64057C0.398647 5.60856 0.249727 5.5822 0.0727083 5.55113C0.0314977 5.31764 -0.147394 5.05496 0.275952 4.94292C0.335894 4.92692 0.366802 4.7631 0.393964 4.6633C0.650594 3.70674 1.20132 3.21528 2.18007 3.30001C3.54283 3.4177 4.69111 2.79349 5.89839 2.36793C6.48939 2.15986 7.06821 2.09866 7.72665 2.18434V11.5626H21.3458C20.3924 12.022 19.9297 12.7536 19.8969 13.8382C19.2497 13.8382 18.6287 13.8212 18.0106 13.8485C17.8382 13.8561 17.6725 13.9945 17.5039 14.0736C17.3137 14.1621 17.1255 14.324 16.9335 14.3287C15.8264 14.3532 14.7175 14.3475 13.6104 14.3334C13.4521 14.3315 13.217 14.275 13.1496 14.163C12.8724 13.7007 12.4453 13.8514 12.0631 13.8533C11.9648 13.8533 11.8215 13.9775 11.7756 14.0802C11.5995 14.4746 11.311 14.6366 10.8896 14.6319C9.92205 14.6225 8.9536 14.6573 7.98796 14.6102C7.71728 14.597 7.33327 14.4295 7.22182 14.2167C7.0448 13.8796 6.84249 13.8194 6.52498 13.8344C6.3105 13.8448 6.09414 13.8175 5.88809 13.8081C5.58182 12.4118 4.93088 11.6784 3.96524 11.6163C2.74203 11.5372 2.13886 12.0493 1.57877 13.665ZM1.50571 5.7978V7.67797H4.93556V5.7978H1.50571Z" fill="#9C9C9C"/>
<path d="M23.7641 13.6904C23.7632 14.726 22.9999 15.4952 21.9696 15.4999C20.9281 15.5046 20.1404 14.7119 20.146 13.664C20.1516 12.6397 20.9318 11.8535 21.9452 11.8507C22.983 11.8479 23.7651 12.6378 23.7641 13.6904Z" fill="#9C9C9C"/>
<path d="M27.2483 15.4999C26.2639 15.5084 25.4144 14.6865 25.3985 13.7073C25.3817 12.6971 26.2134 11.8516 27.2268 11.8497C28.2514 11.8479 29.085 12.6745 29.0803 13.6894C29.0756 14.6724 28.2467 15.4915 27.2483 15.4999Z" fill="#9C9C9C"/>
<path d="M3.72079 11.8497C4.72857 11.8432 5.56871 12.6434 5.58557 13.6245C5.60336 14.6225 4.75292 15.4755 3.74139 15.4755C2.73548 15.4755 1.89722 14.6564 1.89909 13.6763C1.9019 12.682 2.72611 11.8554 3.71985 11.8488L3.72079 11.8497Z" fill="#9C9C9C"/>
<path d="M29.3482 13.744C29.2555 12.7282 28.8181 11.9759 27.8299 11.5937H33V13.744H29.3482Z" fill="#9C9C9C"/>
<path d="M22.6365 11.5852H26.5936C25.7057 12.0296 25.2177 12.7366 25.1793 13.744C25.0567 13.7591 24.9667 13.7798 24.8768 13.7789C24.6286 13.7761 24.3327 13.8429 24.1481 13.7299C24.0114 13.6461 24.0264 13.3223 23.9636 13.1076C23.7576 12.4015 23.2808 11.9439 22.6365 11.5852Z" fill="#9C9C9C"/>
</svg>